<?xml version="1.0" encoding="UTF-8" standalone="no"?>
<svg
   xmlns:dc="http://purl.org/dc/elements/1.1/"
   xmlns:cc="http://creativecommons.org/ns#"
   xmlns:rdf="http://www.w3.org/1999/02/22-rdf-syntax-ns#"
   xmlns:svg="http://www.w3.org/2000/svg"
   xmlns="http://www.w3.org/2000/svg"
   xmlns:sodipodi="http://sodipodi.sourceforge.net/DTD/sodipodi-0.dtd"
   xmlns:inkscape="http://www.inkscape.org/namespaces/inkscape"
   viewBox="0 0 4096 4096.0001"
   version="1.1"
   id="svg90"
   sodipodi:docname="coral-logo.svg"
   width="4096"
   height="4096"
   inkscape:export-filename="G:\Users\suitedoalex\sites\svg\coral-logo-0.png"
   inkscape:export-xdpi="96"
   inkscape:export-ydpi="96"
   inkscape:version="0.92.2 (5c3e80d, 2017-08-06)">
  <metadata
     id="metadata96">
    <rdf:RDF>
      <cc:Work
         rdf:about="">
        <dc:format>image/svg+xml</dc:format>
        <dc:type
           rdf:resource="http://purl.org/dc/dcmitype/StillImage" />
        <dc:title></dc:title>
      </cc:Work>
    </rdf:RDF>
  </metadata>
  <defs
     id="defs94" />
  <sodipodi:namedview
     pagecolor="#ffffff"
     bordercolor="#666666"
     borderopacity="1"
     objecttolerance="10"
     gridtolerance="10"
     guidetolerance="10"
     inkscape:pageopacity="0"
     inkscape:pageshadow="2"
     inkscape:window-width="1600"
     inkscape:window-height="837"
     id="namedview92"
     showgrid="false"
     inkscape:zoom="0.048088592"
     inkscape:cx="-3730.6145"
     inkscape:cy="1408.2907"
     inkscape:window-x="-8"
     inkscape:window-y="-8"
     inkscape:window-maximized="1"
     inkscape:current-layer="svg90" />
  <linearGradient
     id="A"
     gradientUnits="userSpaceOnUse"
     x1="41.671001"
     y1="29.315001"
     x2="110.381"
     y2="61.355"
     gradientTransform="matrix(15.790777,0,0,15.790777,436.78187,1145.1603)">
    <stop
       offset="0"
       stop-color="#ae1d1f"
       id="stop2" />
    <stop
       offset=".146"
       stop-color="#bd431f"
       id="stop4" />
    <stop
       offset=".349"
       stop-color="#d0731f"
       id="stop6" />
    <stop
       offset=".45"
       stop-color="#d7851f"
       id="stop8" />
    <stop
       offset=".548"
       stop-color="#dd9823"
       id="stop10" />
    <stop
       offset=".816"
       stop-color="#eec82f"
       id="stop12" />
    <stop
       offset=".95"
       stop-color="#f4da33"
       id="stop14" />
  </linearGradient>
  <path
     d="m 1772.6816,1893.642 c -140.5379,-45.7933 -304.762,-148.4333 -461.0907,-386.874 -34.7397,-50.5305 -52.1096,-86.8493 -52.1096,-86.8493 -7.8954,-15.7907 -22.1071,-47.3723 -44.2141,-69.4794 -25.2653,-22.1071 -39.477,-3.1581 -61.5841,12.6326 -22.107,15.7908 -37.8978,-1.579 -50.5305,-15.7907 -17.3698,-18.949 -34.7397,-20.528 -34.7397,-4.7373 0,20.528 15.7908,36.3188 1.5791,60.005 -4.7372,7.8954 -12.6326,14.2117 -25.2652,14.2117 -37.8979,0 -71.05854,-69.4794 -99.48193,-101.061 -4.73724,-4.7373 -11.05355,-6.3163 -12.63263,3.1581 -3.15815,12.6327 0,28.4235 -6.31631,28.4235 -9.47447,1.5791 -28.42339,-36.3189 -39.47694,-48.9515 -7.89539,-7.8954 -15.79077,-12.6325 -25.26524,-17.3698 -34.73971,-14.2117 -36.31879,-20.528 -63.16311,-52.1096 -7.89539,-9.4744 -39.47694,-42.6351 -47.37233,-42.6351 -4.73723,0 -6.31631,6.3163 -6.31631,11.0536 0,3.1581 0,9.4744 -4.73723,9.4744 -4.73723,0 -12.63262,-6.3163 -23.68616,-15.7907 -11.05355,-9.4745 -23.68617,-18.949 -33.16064,-22.1071 -7.89538,-3.1582 -11.05354,3.1581 -12.63262,14.2117 -3.15815,11.0535 7.89539,11.0535 7.89539,11.0535 9.47447,0 15.79077,11.0536 20.52801,15.7908 4.73723,4.7372 9.47447,17.3698 30.00248,22.1071 20.52801,4.7372 26.84432,17.3698 31.58155,26.8443 25.26525,61.5841 42.6351,104.2191 42.6351,121.5889 0,12.6327 -12.63263,14.2118 -31.58156,-30.0024 -11.05354,-26.8443 -22.10708,-45.7933 -28.42339,-56.8468 -4.73723,-7.8953 -9.47447,-15.7908 -17.36986,-20.528 a 103.7454,103.7454 0 0 0 -39.47694,-15.7908 c -12.63262,-1.5791 -15.79078,4.7372 -14.2117,11.0536 1.57908,6.3163 7.89539,9.4744 15.79078,17.3699 37.89786,36.3187 56.84679,67.9003 74.21665,115.2726 a 1763.8298,1763.8298 0 0 0 50.53048,121.589 c 124.74713,258.9687 317.39466,536.8864 769.01086,536.8864 187.9103,0 356.8715,-53.6887 494.2513,-123.1681 l 47.3723,-25.2652 c -31.5815,14.2117 -206.8591,30.0025 -350.5552,-17.3699 z"
     id="path17"
     inkscape:connector-curvature="0"
     style="fill:url(#A);stroke-width:15.79077721"
     inkscape:export-xdpi="6.033864"
     inkscape:export-ydpi="6.033864" />
  <linearGradient
     id="B"
     gradientUnits="userSpaceOnUse"
     x1="58.334"
     y1="38.688999"
     x2="173.201"
     y2="18.434999"
     gradientTransform="matrix(15.790777,0,0,15.790777,436.78187,1145.1603)">
    <stop
       offset="0"
       stop-color="#da9033"
       id="stop19" />
    <stop
       offset=".023"
       stop-color="#dc9a34"
       id="stop21" />
    <stop
       offset=".123"
       stop-color="#e5c238"
       id="stop23" />
    <stop
       offset=".202"
       stop-color="#ebda3b"
       id="stop25" />
    <stop
       offset=".25"
       stop-color="#ede33c"
       id="stop27" />
    <stop
       offset=".6"
       stop-color="#8ab53c"
       id="stop29" />
    <stop
       offset=".641"
       stop-color="#84b24f"
       id="stop31" />
    <stop
       offset=".815"
       stop-color="#6da69c"
       id="stop33" />
    <stop
       offset=".939"
       stop-color="#5e9fcc"
       id="stop35" />
    <stop
       offset="1"
       stop-color="#589cde"
       id="stop37" />
  </linearGradient>
  <path
     d="m 1777.4188,1873.114 c 437.4045,124.7471 588.996,-210.0173 693.2151,-341.0808 9.4745,-12.6325 18.9489,-22.1071 26.8444,-33.1606 7.8953,-7.8954 14.2117,-17.3699 22.107,-25.2652 -618.9984,290.5502 -1165.3593,53.6886 -1206.4153,33.1606 7.8953,9.4744 206.8591,292.1293 464.2488,366.346 z"
     id="path40"
     inkscape:connector-curvature="0"
     style="fill:url(#B);stroke-width:15.79077721"
     inkscape:export-xdpi="6.033864"
     inkscape:export-ydpi="6.033864" />
  <path
     d="m 2470.6339,1532.0332 -66.3213,53.6887 c 0,0 -17.3698,15.7908 -34.7397,28.4233 -48.9514,34.7398 -75.7957,12.6327 -170.5404,18.949 -53.6886,3.1582 -107.3772,14.2117 -151.5914,26.8443 -37.8978,9.4745 -85.2702,20.528 -85.2702,37.8979 0,9.4745 20.528,9.4745 52.1095,15.7908 12.6327,1.579 22.1072,4.7372 22.1072,11.0535 0,6.3163 -9.4745,12.6326 -22.1072,17.3699 -39.4768,15.7907 -93.1655,26.8443 -137.3797,34.7397 53.6886,4.7372 112.1146,6.3163 173.6986,1.579 9.4744,0 17.3698,3.1582 22.1071,7.8954 7.8953,6.3163 7.8953,17.3699 3.1581,28.4235 -11.0535,18.9488 -41.056,26.8443 -72.6375,37.8978 -31.5816,12.6326 -66.3213,26.8443 -86.8493,41.056 290.5502,15.7908 450.0371,-232.1244 554.2562,-361.6088 z"
     id="path42"
     inkscape:connector-curvature="0"
     style="opacity:0.15;fill:#003366;stroke-width:15.79077721"
     inkscape:export-xdpi="6.033864"
     inkscape:export-ydpi="6.033864" />
  <path
     d="m 1313.17,1506.768 c -34.7397,-50.5305 -52.1095,-86.8493 -52.1095,-86.8493 -4.7373,-7.8954 -7.8954,-17.3698 -15.7909,-30.0024 -7.8954,-11.0536 -14.2117,-28.4234 -31.5815,-22.1071 -25.2653,9.4744 -33.1606,137.3798 7.8954,268.4432 0,0 33.1606,104.2191 123.1681,172.1195 0,0 3.1581,1.579 3.1581,0 v -3.1583 c 0,0 0,-1.579 -1.5791,-3.1581 -6.3163,-6.3163 -56.8468,-50.5305 -75.7957,-127.9053 -11.0536,-47.3723 -7.8954,-66.3212 -1.5791,-72.6375 4.7373,-4.7373 7.8954,-3.1582 11.0535,-1.5792 0,0 7.8955,4.7373 28.4235,28.4235 78.9538,75.7957 173.6985,176.8566 295.2875,195.8056 -94.7446,-64.7421 -192.6475,-167.3822 -290.5503,-317.3946 z m 645.8427,472.1442 c -126.3261,48.9515 -254.2315,72.6376 -378.9786,72.6376 -356.8715,0 -543.2027,-178.4358 -661.63355,-375.8205 0,0 71.05849,102.64 148.43325,151.5914 61.5841,39.477 120.01,37.8979 154.7497,-1.579 238.4408,232.1244 478.4606,230.5453 737.4292,153.1705 z"
     id="path44"
     inkscape:connector-curvature="0"
     style="fill:#a02322;stroke-width:15.79077721"
     inkscape:export-xdpi="6.033864"
     inkscape:export-ydpi="6.033864" />
  <linearGradient
     id="C"
     gradientUnits="userSpaceOnUse"
     x1="141.589"
     y1="22.086"
     x2="187.064"
     y2="60.243999"
     gradientTransform="matrix(15.790777,0,0,15.790777,436.78187,1145.1603)">
    <stop
       offset="0"
       stop-color="#81b90a"
       id="stop46" />
    <stop
       offset=".141"
       stop-color="#5eb547"
       id="stop48" />
    <stop
       offset=".283"
       stop-color="#3fb17d"
       id="stop50" />
    <stop
       offset=".415"
       stop-color="#27aea7"
       id="stop52" />
    <stop
       offset=".533"
       stop-color="#15acc6"
       id="stop54" />
    <stop
       offset=".634"
       stop-color="#0baad8"
       id="stop56" />
    <stop
       offset=".705"
       stop-color="#07aadf"
       id="stop58" />
    <stop
       offset=".747"
       stop-color="#08a4da"
       id="stop60" />
    <stop
       offset=".803"
       stop-color="#0a94cb"
       id="stop62" />
    <stop
       offset=".865"
       stop-color="#0d79b2"
       id="stop64" />
    <stop
       offset=".933"
       stop-color="#115390"
       id="stop66" />
    <stop
       offset="1"
       stop-color="#162667"
       id="stop68" />
  </linearGradient>
  <path
     d="m 3331.2312,1377.2836 c -172.1194,-91.5864 -385.2949,-134.2216 -563.7307,-66.3213 -240.0198,90.0075 -333.1854,367.9252 -514.7793,521.0957 107.3773,-74.2167 180.0148,-134.2216 205.2801,-156.3287 72.6375,-64.7422 356.8716,-268.4432 543.2027,-252.6524 113.6935,9.4744 176.8567,85.2702 176.8567,85.2702 1.5791,1.579 1.5791,3.1581 3.1581,3.1581 0,0 1.5791,0 1.5791,1.5791 22.1071,31.5815 37.8979,66.3212 77.3749,99.4819 124.7471,110.5354 202.1219,14.2117 276.3385,113.6936 58.4259,80.5329 67.9004,126.3262 69.4794,187.9102 1.5791,60.005 -44.2142,173.6985 -72.6376,211.5964 l 17.3699,1.5791 23.6861,-45.7933 c 66.3213,-135.8006 66.3213,-274.7595 39.477,-371.0832 -64.7421,-230.5453 -273.1804,-328.4481 -282.6549,-333.1854 z"
     id="path71"
     inkscape:connector-curvature="0"
     style="fill:url(#C);stroke-width:15.79077721"
     inkscape:export-xdpi="6.033864"
     inkscape:export-ydpi="6.033864" />
  <linearGradient
     id="D"
     gradientUnits="userSpaceOnUse"
     x1="142.082"
     y1="30.785"
     x2="138.353"
     y2="20.540001"
     gradientTransform="matrix(15.790777,0,0,15.790777,436.78187,1145.1603)">
    <stop
       offset="0"
       stop-color="#2aacc7"
       id="stop73" />
    <stop
       offset=".179"
       stop-color="#249db9"
       id="stop75" />
    <stop
       offset=".523"
       stop-color="#157696"
       id="stop77" />
    <stop
       offset=".95"
       stop-color="#003d62"
       id="stop79" />
  </linearGradient>
  <path
     d="m 3021.732,1400.9698 c -116.8517,-36.3188 -282.6549,-37.8979 -375.8205,34.7397 -11.0535,9.4745 -37.8978,33.1606 -39.4769,47.3723 0,11.0536 11.0535,11.0536 31.5815,17.3699 18.949,4.7373 28.4234,9.4744 28.4234,14.2117 0,3.1581 -1.579,4.7373 -7.8954,9.4744 -6.3163,4.7373 -14.2116,9.4745 -18.9489,12.6327 -69.4794,42.635 -108.9564,66.3213 -181.5939,131.0634 -28.4234,25.2653 -113.6936,107.3773 -244.7571,191.0684 402.6649,-241.5989 522.6747,-342.6599 739.0084,-361.6088 113.6935,-9.4744 210.0173,6.3163 230.5453,15.7908 0,-1.5791 -45.7932,-75.7957 -161.0659,-112.1145 z"
     id="path82"
     inkscape:connector-curvature="0"
     style="fill:url(#D);stroke-width:15.79077721"
     inkscape:export-xdpi="6.033864"
     inkscape:export-ydpi="6.033864" />
  <path
     d="m 3337.5475,1369.3883 c -235.2825,-154.7497 -434.2463,-120.01 -568.4679,-71.0586 -113.6936,41.056 -194.2266,116.8518 -247.9152,175.2777 -7.8954,9.4744 -15.7908,17.3698 -22.1071,25.2652 -7.8953,9.4745 -17.3699,20.5281 -26.8443,33.1606 -104.2191,131.0635 -263.7059,377.3996 -551.0981,361.6088 a 621.20914,621.20914 0 0 1 -142.117,-26.8443 c -257.3896,-82.1121 -457.9326,-348.9762 -465.8279,-358.4506 154.7496,238.4407 311.0783,355.2925 451.6162,402.6648 74.2167,25.2652 140.5379,34.7397 198.9638,34.7397 58.4258,0 110.5354,-11.0536 156.3287,-30.0025 197.3846,-77.3748 298.4456,-292.1293 448.458,-446.879 58.4259,-61.584 124.7471,-113.6935 208.4382,-145.2751 178.4358,-67.9004 382.1369,-34.7397 555.8354,56.8467 1.579,-3.1581 113.6936,58.426 4.7372,-11.0534 z"
     id="path84"
     inkscape:connector-curvature="0"
     style="fill:#ffffff;stroke-width:15.79077721"
     inkscape:export-xdpi="6.033864"
     inkscape:export-ydpi="6.033864" />
  <path
     d="m 3411.7642,2147.8735 c 11.0535,-11.0536 9.4744,-60.005 9.4744,-60.005 0,0 -20.528,-31.5815 -39.4769,-25.2651 -20.528,6.3163 -20.528,41.056 -15.7908,71.0584 4.7373,28.4234 34.7397,25.2653 45.7933,14.2117 z m 153.1705,-37.8978 c 83.6911,-126.3263 75.7957,-263.706 75.7957,-263.706 0,-140.5379 -36.3187,-281.0759 -197.3847,-394.7694 137.3798,112.1145 206.8592,304.762 167.3823,472.1442 -3.1582,11.0535 -11.0536,48.9514 -15.7908,58.4259 -12.6327,48.9514 -23.6862,85.2701 -56.8468,140.5378 l -36.3188,17.3699 c -22.1071,25.2653 -42.6351,31.5816 -55.2677,36.3188 -17.3699,6.3163 -60.005,20.528 -93.1656,28.4234 -26.8443,6.3163 -72.6375,1.5791 -88.4284,-12.6326 -15.7907,-14.2118 -14.2117,-25.2652 -9.4744,-39.4769 4.7373,-14.2117 -7.8954,-12.6327 -7.8954,-12.6327 -20.528,1.5791 -18.9489,18.949 -18.9489,18.949 0,4.7372 6.3163,33.1606 37.8978,60.0049 30.0025,26.8443 61.584,25.2652 67.9003,25.2652 9.4746,0 22.1072,1.5791 39.477,14.2117 15.7908,11.0536 15.7908,25.2653 14.2117,44.2143 -1.5791,36.3187 -15.7907,30.0024 -50.5305,77.3747 -11.0535,15.7908 -36.3187,60.005 -42.635,69.4795 -6.3163,11.0535 -14.2117,14.2116 -20.528,18.9489 -6.3164,3.1581 -7.8955,4.7372 -18.949,26.8443 -6.3163,14.2117 -6.3163,25.2652 6.3163,25.2652 12.6327,0 26.8444,-20.528 30.0025,-26.8443 3.1582,-4.7372 7.8953,-12.6326 15.7907,-23.6861 4.7373,-7.8954 12.6326,-14.2117 17.3699,-22.1071 4.7373,-4.7373 9.4744,-12.6326 15.7908,-17.3699 7.8953,-6.3163 17.3699,-12.6326 25.2652,-18.949 11.0536,-7.8953 15.7908,-12.6325 18.949,-17.3698 4.7372,-3.1582 18.9489,-14.2117 28.4234,-14.2117 9.4744,0 15.7907,7.8954 15.7907,33.1607 0,25.2652 -7.8954,56.8468 -15.7907,77.3748 -9.4745,20.528 -17.3699,36.3187 -37.8979,72.6375 -7.8954,14.2118 -15.7908,25.2653 -22.1071,34.7398 -14.2117,17.3698 -22.1071,23.6861 -30.0024,34.7397 -1.5791,3.1581 -3.1583,6.3163 -4.7373,7.8954 -6.3163,12.6326 -1.5791,25.2651 11.0536,25.2651 6.3163,0 18.9488,-3.1581 26.8443,-12.6325 4.7372,-4.7373 9.4744,-11.0536 17.3698,-33.1606 1.5791,-3.1583 4.7373,-14.2117 6.3163,-17.3699 18.949,-41.0561 39.477,-61.5841 63.1631,-97.9028 12.6326,-18.949 52.1096,-78.9539 45.7933,-172.1195 -1.5791,-23.6862 -4.7373,-34.7397 -4.7373,-64.7422 6.3164,-63.1631 34.7397,-96.3237 80.533,-157.9077 z"
     id="path86"
     inkscape:connector-curvature="0"
     style="fill:#162667;stroke-width:15.79077721"
     inkscape:export-xdpi="6.033864"
     inkscape:export-ydpi="6.033864" />
  <path
     d="m 2557.4831,2248.9345 c -69.4794,0 -146.8541,12.6326 -208.4382,28.4234 l 6.3163,44.2141 c 6.3164,36.3189 37.8979,56.8469 88.4284,48.9514 26.8443,-4.7371 69.4794,-14.2117 108.9564,-14.2117 72.6375,0 115.2726,18.949 115.2726,113.6937 v 9.4744 c -180.0149,-41.056 -378.9786,25.2653 -378.9786,187.9103 0,124.7471 102.64,187.9102 260.5478,187.9102 129.4844,0 173.6985,-36.3188 240.0198,-36.3188 30.0024,0 44.2142,1.5791 72.6376,11.0535 v -390.0321 c 0,-146.8543 -165.8031,-191.0684 -304.7621,-191.0684 z m 11.0536,511.6211 c -55.2677,0 -99.4819,-36.3187 -99.4819,-97.9028 0,-90.0074 97.9029,-108.9563 198.9638,-88.4283 v 86.8493 c 0,66.3212 -44.2142,99.4818 -99.4819,99.4818 z m -1678.55956,94.7447 c 60.00496,0 157.90776,-1.5791 254.23156,-39.477 l -6.3163,-52.1095 c -6.3163,-56.8468 -48.9515,-66.3213 -86.8493,-60.0049 -44.2142,7.8953 -74.21668,15.7907 -129.4844,15.7907 -112.11451,0 -235.28257,-86.8492 -235.28257,-282.6549 0,-183.173 112.11451,-284.2339 235.28257,-284.2339 55.26772,0 85.2702,7.8953 129.4844,15.7907 37.8978,6.3163 80.533,-1.579 86.8493,-60.005 l 6.3163,-52.1095 c -96.3238,-36.3188 -194.2266,-39.4769 -254.23156,-39.4769 -252.65241,0 -429.50911,175.2776 -431.08819,418.4556 1.57908,244.757 178.43578,420.0346 431.08819,420.0346 z M 2271.6702,2384.7352 v -127.9053 c -26.8444,-6.3163 -47.3724,-7.8954 -60.005,-7.8954 -71.0585,0 -121.589,37.8978 -156.3287,88.4284 v -12.6327 c 0,-34.7397 -28.4234,-63.1631 -63.1631,-63.1631 h -161.0659 c 20.528,23.6862 33.1606,53.6886 33.1606,88.4283 v 468.9861 c 0,12.6327 9.4745,22.1071 22.1071,22.1071 h 170.5404 v -325.29 c 7.8954,-127.9053 105.7982,-137.3797 192.6475,-115.2726 17.3698,4.7372 22.1071,-3.1583 22.1071,-15.7908 z m 811.6458,-295.2875 h -162.645 c 20.528,23.6861 33.1607,53.6885 33.1607,88.4282 v 641.1056 c 0,12.6327 9.4744,22.1071 22.107,22.1071 h 170.5404 v -688.4778 c 0,-34.7397 -28.4233,-63.1631 -63.1631,-63.1631 z m -1298.0018,462.6697 c 0,-175.2777 -137.3797,-303.1829 -314.2365,-303.1829 -176.8566,0 -314.2364,127.9052 -314.2364,303.1829 0,175.2776 137.3798,303.1829 314.2364,303.1829 176.8568,0 314.2365,-127.9053 314.2365,-303.1829 z m -315.8155,210.0173 c -78.9539,0 -113.6936,-67.9003 -113.6936,-208.4382 0,-132.6425 34.7397,-206.8592 113.6936,-206.8592 78.9539,0 113.6936,72.6376 113.6936,205.2801 1.5791,138.9588 -34.7397,210.0173 -113.6936,210.0173 z"
     id="path88"
     inkscape:connector-curvature="0"
     style="fill:#012169;stroke-width:15.79077721"
     inkscape:export-xdpi="6.033864"
     inkscape:export-ydpi="6.033864" />
</svg>
