<?xml version="1.0" encoding="UTF-8" standalone="no"?>
<!-- Created with Inkscape (http://www.inkscape.org/) -->

<svg
   xmlns:dc="http://purl.org/dc/elements/1.1/"
   xmlns:cc="http://creativecommons.org/ns#"
   xmlns:rdf="http://www.w3.org/1999/02/22-rdf-syntax-ns#"
   xmlns:svg="http://www.w3.org/2000/svg"
   xmlns="http://www.w3.org/2000/svg"
   xmlns:sodipodi="http://sodipodi.sourceforge.net/DTD/sodipodi-0.dtd"
   xmlns:inkscape="http://www.inkscape.org/namespaces/inkscape"
   width="700mm"
   height="700mm"
   viewBox="0 0 700 700"
   version="1.1"
   id="svg1093"
   inkscape:version="0.92.4 (5da689c313, 2019-01-14)"
   sodipodi:docname="eucatex-tintas-logo.svg"
   inkscape:export-filename="C:\Users\suitedoalex\sites\eucatex-tintas-logo-0.png"
   inkscape:export-xdpi="148.6263"
   inkscape:export-ydpi="148.6263">
  <defs
     id="defs1087">
    <clipPath
       clipPathUnits="userSpaceOnUse"
       id="clipPath64">
      <path
         d="M 0,0 H 510.236 V 680.315 H 0 Z"
         id="path62"
         inkscape:connector-curvature="0" />
    </clipPath>
  </defs>
  <sodipodi:namedview
     id="base"
     pagecolor="#ffffff"
     bordercolor="#666666"
     borderopacity="1.0"
     inkscape:pageopacity="0.0"
     inkscape:pageshadow="2"
     inkscape:zoom="0.12374369"
     inkscape:cx="-402.8025"
     inkscape:cy="942.49914"
     inkscape:document-units="mm"
     inkscape:current-layer="layer1"
     showgrid="false"
     inkscape:window-width="1600"
     inkscape:window-height="837"
     inkscape:window-x="-8"
     inkscape:window-y="-8"
     inkscape:window-maximized="1" />
  <metadata
     id="metadata1090">
    <rdf:RDF>
      <cc:Work
         rdf:about="">
        <dc:format>image/svg+xml</dc:format>
        <dc:type
           rdf:resource="http://purl.org/dc/dcmitype/StillImage" />
        <dc:title></dc:title>
      </cc:Work>
    </rdf:RDF>
  </metadata>
  <g
     inkscape:label="Layer 1"
     inkscape:groupmode="layer"
     id="layer1"
     transform="translate(0,403)">
    <g
       transform="matrix(3.3778756,0,0,-3.3778756,-18.324087,244.5172)"
       id="g58"
       inkscape:export-filename="C:\Users\suitedoalex\sites\eucatex-tintas-logo-4.png"
       inkscape:export-xdpi="18.637228"
       inkscape:export-ydpi="18.637228">
      <g
         id="g60"
         clip-path="url(#clipPath64)">
        <g
           id="g66"
           transform="translate(132.5697,62.2885)">
          <path
             d="M 0,0 C 2.949,0.652 5.898,1.389 8.876,2.155 21.408,5.472 39.697,12.051 41.285,14.149 32.523,11.001 23.365,7.599 8.932,3.856 5.813,3.062 2.835,2.325 0,1.673 -20.472,-3.006 -33.345,-3.544 -41.256,-2.07 -34.791,-5.303 -18.062,-3.998 0,0 m 0,46.219 c 4.594,0.68 9.953,1.814 14.348,2.835 6.011,1.418 9.839,2.411 13.298,3.318 2.212,0.85 8.195,2.155 9.017,3.232 C 35.161,55.434 22.23,52.428 15.539,50.926 11.598,50.046 5.161,48.657 0,47.892 c -3.941,-0.568 -7.145,-0.766 -7.939,-0.114 1.729,5.161 -3.176,6.38 -12.193,7.003 -12.051,0.823 -31.673,-0.68 -51.606,-4.706 -12.873,-2.581 -20.699,-5.274 -27.958,-7.713 -1.446,-0.482 -3.573,-1.333 -4.338,-2.041 -0.341,-0.284 -0.17,-0.964 0.113,-0.993 v -0.141 c 8.818,3.118 25.293,8.251 39.952,10.462 13.185,1.957 28.809,3.006 39.045,2.439 -11.569,-0.623 -22.372,-0.709 -38.761,-3.403 -14.149,-2.325 -29.943,-7.656 -40.179,-11.37 -0.029,-0.284 -0.086,-0.51 -0.17,-0.567 -0.568,-0.198 0.822,-1.928 0.368,-2.07 -0.624,-0.624 1.049,-2.184 1.021,-2.268 -0.51,-0.964 -1.134,-1.305 -0.851,-1.9 0.255,-2.24 -0.708,-3.261 0.482,-4.509 0.255,-0.283 0.681,-1.956 -0.056,-3.601 0.056,-4.055 1.219,-3.43 1.134,-3.884 -0.028,-0.255 -0.908,-1.985 -0.794,-2.41 0.539,-2.268 1.531,-2.524 1.333,-3.375 -0.369,-1.73 1.247,-1.673 0.51,-2.438 -0.482,-1.787 0.284,-4.707 0.709,-5.643 0.141,-0.34 2.041,-1.616 1.389,-2.637 -0.794,-1.219 1.985,-5.075 2.807,-5.387 0.681,0.51 1.928,1.105 3.998,1.956 3.432,1.418 16.191,5.331 24.755,7.004 7.003,1.361 16.814,2.977 23.506,2.977 C -44.121,8.138 -44.404,7.685 -44.631,7.202 -46.247,7.174 -49.423,7.06 -54.952,6.295 -61.02,5.501 -86.312,0.453 -94.564,-4.31 c 6.493,2.807 29.716,7.94 39.811,9.159 6.465,0.794 8.648,0.879 9.612,0.794 -0.369,-2.269 0.595,-4.622 2.24,-5.643 5.529,-3.346 25.519,-0.822 39.527,2.183 C -2.24,2.439 -1.106,2.694 0,2.949 25.803,8.79 39.641,15.17 41.484,15.907 c 1.304,0.539 6.437,3.176 6.153,3.261 -0.681,0.284 -10.265,-3.743 -10.69,-3.062 -0.425,0.652 11.228,4.111 11.569,4.905 -0.567,0.51 -2.609,-0.425 -2.949,0 -0.227,0.255 9.357,4.111 9.612,4.877 -0.652,0.312 -6.408,-2.325 -7.145,-1.588 -0.255,0.227 3.799,1.673 4.395,2.58 -0.596,0.255 -6.522,-1.871 -6.72,-1.191 -0.086,0.255 3.062,1.589 3.204,2.099 -0.369,0.453 -1.617,-0.057 -1.418,0.453 0.17,0.341 4.14,2.184 3.97,2.467 -0.17,0.284 -9.641,-2.977 -10.52,-2.467 0.284,0.794 8.705,3.772 8.875,4.537 -0.851,0.171 -5.727,-1.389 -5.983,-0.765 -0.198,0.539 8.393,3.147 8.592,3.516 -0.199,0.284 -5.671,-0.737 -5.813,-0.284 -0.085,0.312 2.382,0.709 2.524,1.333 -0.539,0.68 -4.055,-0.539 -4.509,-0.085 0.567,1.191 5.954,1.956 8.081,4.083 -0.595,0.453 -3.488,-0.681 -3.658,0.198 -0.056,0.312 6.947,2.496 7.628,3.857 -1.56,0.113 -9.159,-2.439 -10.321,-2.127 0,0.454 10.208,3.828 10.577,4.934 -1.135,0.397 -5.332,-1.049 -5.643,-0.624 -0.341,0.51 4.48,2.041 4.82,2.58 -1.163,0.568 -1.503,-0.057 -1.9,0.681 -0.142,0.453 2.723,1.503 2.949,2.325 -1.106,0.426 -9.868,-2.24 -9.981,-1.503 -0.085,0.51 9.584,3.006 9.755,3.884 -0.766,0.313 -5.218,-0.368 -5.473,-0.141 -0.255,0.227 1.786,0.993 1.956,1.531 -0.765,0.284 -8.677,-1.985 -9.017,-1.588 -0.34,0.397 3.488,1.787 3.658,2.184 C 45.907,56.625 33.091,52.854 28.44,51.918 24.328,50.727 18.714,49.281 14.603,48.289 9.159,46.956 4.253,45.85 0,45.169 c -2.863,-0.482 -5.444,-0.765 -7.684,-0.822 -0.567,0 -0.879,0.199 -1.078,0.596 -0.198,0.425 0.029,0.765 0.029,0.765 C -6.805,45.425 -3.63,45.68 0,46.219"
             style="fill:#004f9f;fill-opacity:1;fill-rule:nonzero;stroke:none"
             id="path68"
             inkscape:connector-curvature="0" />
        </g>
        <g
           id="g70"
           transform="translate(34.3574,58.034)">
          <path
             d="m 0,0 c 0.547,0.552 1.816,1.404 3.396,2.1 10.332,4.559 22.942,8.549 36.202,11.306 12.274,2.55 25.106,4.044 37.209,3.953 h 0.012 l 0.021,-0.002 c 6.472,-0.377 11.429,-0.667 16.984,-2.979 0.577,-0.241 1.404,-0.718 2.126,-1.221 0.651,-0.454 1.226,-0.937 1.472,-1.3 0.294,-0.432 0.417,-0.824 0.41,-1.168 -0.004,-0.238 -0.069,-0.452 -0.183,-0.64 v 0 C 97.539,9.866 97.382,9.709 97.193,9.581 96.765,9.29 96.162,9.142 95.537,9.154 94.781,9.169 94.01,9.565 93.451,9.852 h 0.001 c -0.111,0.057 -0.213,0.109 -0.317,0.159 l -0.098,0.047 c -2.032,0.966 -3.393,1.613 -7.503,2.297 -2.096,0.348 -4.286,0.562 -6.512,0.689 -2.233,0.127 -4.499,0.166 -6.738,0.165 C 65.766,13.204 59.274,12.535 52.611,11.848 51.262,11.709 49.904,11.569 48.506,11.431 44.399,11.025 39.339,10.225 33.717,9.095 28.24,7.995 22.222,6.578 16.024,4.901 12.081,3.835 8.973,2.548 5.571,1.14 4.092,0.528 2.558,-0.108 0.872,-0.759 L 0.863,-0.763 C 0.412,-0.916 0.108,-0.959 -0.064,-0.919 -0.325,-0.859 -0.403,-0.695 -0.322,-0.451 -0.279,-0.324 -0.169,-0.17 0,0"
             style="fill:#ea5b0b;fill-opacity:1;fill-rule:nonzero;stroke:none"
             id="path72"
             inkscape:connector-curvature="0" />
        </g>
        <g
           id="g74"
           transform="translate(51.7103,83.4759)">
          <path
             d="M 0,0 C 1.013,0.622 1.649,1.557 2.055,2.79 L 2.124,3.002 H 2.345 4.786 5.207 L 5.077,2.601 C 4.512,0.869 3.446,-0.844 1.614,-2.035 0.133,-2.998 -1.843,-3.614 -4.451,-3.614 c -3.195,0 -5.45,0.996 -6.974,2.482 -1.922,1.875 -2.667,4.52 -2.667,6.928 0,2.627 0.863,5.123 2.672,6.887 1.586,1.547 3.892,2.525 6.969,2.525 4.561,0 9.972,-1.974 9.972,-10.005 V 4.897 H 5.216 -11.033 c 0.071,-1.635 0.709,-3.103 1.833,-4.159 1.12,-1.049 2.728,-1.694 4.749,-1.694 1.986,0 3.419,0.322 4.451,0.956 M -8.927,11.029 C -9.934,10.202 -10.695,9.001 -10.989,7.357 H 2.408 C 2.062,9.043 1.3,10.258 0.295,11.085 c -1.251,1.029 -2.891,1.466 -4.581,1.466 -1.643,0 -3.348,-0.458 -4.641,-1.522"
             style="fill:#ffffff;fill-opacity:1;fill-rule:nonzero;stroke:none"
             id="path76"
             inkscape:connector-curvature="0" />
        </g>
        <g
           id="g78"
           transform="translate(76.2576,80.3894)">
          <path
             d="M 0,0 H -2.442 -2.748 V 0.306 2.612 C -3.277,1.865 -4.075,1.139 -5.103,0.575 -6.304,-0.084 -7.825,-0.528 -9.6,-0.528 c -2.949,0 -4.878,0.78 -6.078,2.097 -1.201,1.317 -1.651,3.152 -1.651,5.269 v 10.623 0.306 h 0.306 2.441 0.306 V 17.461 6.409 c 0,-1.596 0.478,-2.664 1.311,-3.328 0.848,-0.673 2.079,-0.951 3.562,-0.951 2.245,0 3.886,0.548 4.972,1.537 1.141,1.037 1.683,2.577 1.683,4.49 v 9.304 0.306 H -2.442 0 0.306 V 17.461 0.306 0 Z"
             style="fill:#ffffff;fill-opacity:1;fill-rule:nonzero;stroke:none"
             id="path80"
             inkscape:connector-curvature="0" />
        </g>
        <g
           id="g82"
           transform="translate(92.036,83.6534)">
          <path
             d="M 0,0 C 1.053,0.78 1.722,1.918 2.034,3.247 L 2.089,3.484 H 2.332 4.773 5.148 L 5.072,3.117 C 4.787,1.731 3.941,-0.459 1.931,-2.002 c -1.358,-1.043 -3.242,-1.79 -5.834,-1.79 -3.118,0 -5.57,0.925 -7.265,2.521 -1.772,1.669 -2.708,4.061 -2.708,6.89 0,2.767 0.894,5.207 2.705,6.912 1.658,1.562 4.075,2.5 7.268,2.5 2.572,0 4.481,-0.689 5.858,-1.678 1.867,-1.341 2.75,-3.233 2.987,-4.717 L 4.999,8.282 H 4.641 2.2 1.964 l -0.059,0.23 c -0.343,1.326 -1.017,2.265 -1.936,2.881 -1.017,0.682 -2.346,0.981 -3.872,0.981 -2.255,0 -3.933,-0.67 -5.068,-1.78 -1.247,-1.219 -1.851,-2.981 -1.851,-4.975 0,-2.079 0.633,-3.791 1.836,-4.967 1.167,-1.139 2.879,-1.786 5.083,-1.786 1.646,0 2.939,0.42 3.903,1.134"
             style="fill:#ffffff;fill-opacity:1;fill-rule:nonzero;stroke:none"
             id="path84"
             inkscape:connector-curvature="0" />
        </g>
        <g
           id="g86"
           transform="translate(102.6761,95.2197)">
          <path
             d="m 0,0 c -0.873,-0.541 -1.33,-1.403 -1.406,-2.665 l -0.017,-0.288 h -0.288 -2.243 -0.338 l 0.034,0.335 c 0.19,1.879 0.799,3.4 2.14,4.461 1.32,1.045 3.336,1.622 6.345,1.622 2.935,0 4.954,-0.465 6.252,-1.359 1.338,-0.922 1.906,-2.276 1.906,-4.029 v -8.972 c 0,-0.643 0.08,-1.064 0.258,-1.31 0.154,-0.211 0.412,-0.298 0.788,-0.298 0.217,0 0.424,0.008 0.626,0.02 h 10e-4 c 0.178,0.01 0.39,0.027 0.602,0.043 l 0.036,0.002 0.329,0.025 v -0.33 -1.649 -0.25 l -0.247,-0.049 -0.113,-0.023 c -0.508,-0.102 -1.235,-0.248 -1.992,-0.248 -1.368,0 -2.1,0.484 -2.498,1.162 -0.247,0.421 -0.354,0.904 -0.403,1.386 -0.398,-0.504 -0.967,-1.089 -1.838,-1.606 -1.249,-0.741 -3.116,-1.338 -5.984,-1.338 -3.07,0 -6.969,1.364 -6.969,5.453 0,2.475 1.272,3.853 3.045,4.638 1.711,0.758 3.881,0.943 5.789,1.044 2.64,0.146 4.117,0.29 4.913,0.598 0.669,0.258 0.802,0.67 0.802,1.373 0,1.119 -0.365,1.876 -1.175,2.347 C 7.49,0.597 6.12,0.807 4.162,0.807 2.287,0.807 0.913,0.565 0,0 m 7.667,-11.382 c 1.111,0.824 1.863,1.988 1.863,3.488 v 2.098 C 8.42,-6.294 6.708,-6.456 2.786,-6.826 L 2.244,-6.877 H 2.243 c -1.369,-0.127 -2.445,-0.393 -3.168,-0.868 -0.677,-0.444 -1.04,-1.087 -1.04,-1.995 0,-1.105 0.429,-1.852 1.119,-2.335 0.862,-0.603 2.141,-0.823 3.523,-0.823 1.736,0 3.63,0.507 4.99,1.516"
             style="fill:#ffffff;fill-opacity:1;fill-rule:nonzero;stroke:none"
             id="path88"
             inkscape:connector-curvature="0" />
        </g>
        <g
           id="g90"
           transform="translate(116.2719,98.1563)">
          <path
             d="M 0,0 H 3.422 V 5.104 5.411 H 3.728 6.17 6.476 V 5.104 0 h 4.543 0.306 V -0.306 -2.154 -2.46 H 11.019 6.476 v -11.042 c 0,-0.661 0.093,-1.137 0.387,-1.428 v 0 c 0.303,-0.299 0.845,-0.443 1.747,-0.443 0.521,0 0.956,0.019 1.317,0.049 h 0.002 c 0.447,0.036 0.782,0.089 1.026,0.142 l 0.37,0.079 v -0.378 -2.045 -0.265 l -0.263,-0.038 c -0.459,-0.066 -0.927,-0.116 -1.378,-0.149 -0.475,-0.035 -0.93,-0.052 -1.337,-0.052 -1.989,0 -3.213,0.403 -3.953,1.183 -0.746,0.787 -0.972,1.917 -0.972,3.378 V -2.46 H 0 -0.306 V -2.154 -0.306 0 Z"
             style="fill:#ffffff;fill-opacity:1;fill-rule:nonzero;stroke:none"
             id="path92"
             inkscape:connector-curvature="0" />
        </g>
        <g
           id="g94"
           transform="translate(133.5685,94.5046)">
          <path
             d="M 0,0 C -1.006,-0.828 -1.768,-2.028 -2.062,-3.672 H 11.335 C 10.99,-1.985 10.228,-0.77 9.223,0.056 7.971,1.085 6.332,1.522 4.642,1.522 2.999,1.522 1.294,1.064 0,0 m 8.927,-11.029 c 1.013,0.622 1.649,1.557 2.055,2.792 l 0.069,0.21 h 0.222 2.441 0.421 l -0.131,-0.4 c -0.565,-1.733 -1.63,-3.446 -3.462,-4.636 -1.481,-0.963 -3.457,-1.58 -6.065,-1.58 -3.196,0 -5.451,0.996 -6.975,2.483 -1.922,1.874 -2.667,4.52 -2.667,6.928 0,2.626 0.863,5.123 2.671,6.887 1.587,1.547 3.893,2.524 6.971,2.524 4.56,0 9.971,-1.973 9.971,-10.005 V -6.131 H 14.142 -2.105 c 0.071,-1.635 0.708,-3.104 1.833,-4.16 1.119,-1.049 2.728,-1.695 4.749,-1.695 1.986,0 3.418,0.323 4.45,0.957"
             style="fill:#ffffff;fill-opacity:1;fill-rule:nonzero;stroke:none"
             id="path96"
             inkscape:connector-curvature="0" />
        </g>
      </g>
    </g>
    <g
       id="g98"
       transform="matrix(3.3778756,0,0,-3.3778756,490.09747,-27.02816)"
       inkscape:export-filename="C:\Users\suitedoalex\sites\eucatex-tintas-logo-4.png"
       inkscape:export-xdpi="18.637228"
       inkscape:export-ydpi="18.637228">
      <path
         d="m 0,0 h -3.199 -0.678 l 0.449,0.508 7.706,8.705 -7.145,8.046 -0.452,0.508 h 0.68 3.167 0.137 l 0.091,-0.103 5.578,-6.275 5.546,6.274 0.091,0.104 h 0.137 3.199 0.686 L 15.535,17.257 8.296,9.213 16.16,0.511 16.621,0 H 15.934 12.701 12.565 L 12.474,0.103 6.335,6.973 0.228,0.103 0.137,0 Z"
         style="fill:#ffffff;fill-opacity:1;fill-rule:nonzero;stroke:none"
         id="path100"
         inkscape:connector-curvature="0" />
    </g>
    <g
       id="g110"
       transform="matrix(3.3778756,0,0,-3.3778756,332.94655,-102.69897)"
       inkscape:export-filename="C:\Users\suitedoalex\sites\eucatex-tintas-logo-4.png"
       inkscape:export-xdpi="18.637228"
       inkscape:export-ydpi="18.637228">
      <path
         d="M 0,0 C -0.023,0.132 -0.034,0.268 -0.034,0.41 V 0.736 H 0.292 0.589 0.912 L 0.915,0.412 C 0.917,0.235 0.946,0.081 1.002,-0.05 1.053,-0.17 1.13,-0.273 1.232,-0.356 v 0.001 C 1.34,-0.443 1.481,-0.51 1.657,-0.556 1.85,-0.608 2.084,-0.633 2.36,-0.633 c 0.129,0 0.245,0.006 0.348,0.018 0.1,0.01 0.192,0.028 0.277,0.051 v -0.001 c 0.079,0.021 0.152,0.047 0.218,0.078 0.058,0.027 0.108,0.057 0.15,0.089 0.041,0.032 0.078,0.066 0.106,0.101 0.027,0.033 0.048,0.067 0.064,0.102 0.018,0.038 0.031,0.079 0.041,0.124 0.009,0.042 0.013,0.088 0.013,0.138 0,0.054 -0.003,0.099 -0.009,0.135 C 3.563,0.236 3.555,0.266 3.545,0.292 3.537,0.312 3.527,0.331 3.513,0.35 3.496,0.372 3.477,0.392 3.453,0.412 3.428,0.432 3.394,0.454 3.351,0.477 3.304,0.502 3.248,0.525 3.184,0.548 3.115,0.573 3.033,0.598 2.939,0.623 H 2.94 C 2.844,0.649 2.738,0.673 2.622,0.698 L 1.764,0.879 C 1.488,0.937 1.253,1.004 1.056,1.081 0.842,1.166 0.669,1.264 0.537,1.375 0.392,1.498 0.283,1.65 0.211,1.831 0.142,2.001 0.108,2.193 0.108,2.406 c 0,0.231 0.05,0.443 0.152,0.636 0.099,0.188 0.245,0.353 0.439,0.493 H 0.698 C 1.06,3.797 1.553,3.927 2.178,3.927 2.504,3.927 2.798,3.895 3.06,3.831 3.332,3.764 3.568,3.661 3.768,3.523 3.982,3.376 4.145,3.188 4.258,2.961 4.366,2.743 4.425,2.49 4.436,2.204 L 4.448,1.866 H 4.11 3.813 3.506 L 3.488,2.174 C 3.484,2.232 3.477,2.286 3.465,2.337 3.454,2.387 3.438,2.439 3.417,2.491 3.399,2.536 3.376,2.578 3.348,2.619 3.319,2.661 3.283,2.702 3.241,2.743 3.206,2.777 3.16,2.81 3.104,2.842 3.041,2.877 2.971,2.908 2.894,2.934 2.814,2.96 2.722,2.98 2.619,2.995 2.515,3.009 2.397,3.016 2.262,3.016 2.132,3.016 2.017,3.011 1.917,3 1.816,2.991 1.724,2.975 1.642,2.955 1.561,2.935 1.49,2.913 1.43,2.887 1.376,2.864 1.329,2.838 1.291,2.811 V 2.81 C 1.254,2.783 1.223,2.755 1.199,2.727 1.177,2.701 1.159,2.673 1.145,2.642 V 2.643 C 1.129,2.606 1.116,2.569 1.109,2.532 1.101,2.494 1.097,2.45 1.097,2.399 1.097,2.311 1.108,2.238 1.131,2.181 1.149,2.133 1.176,2.093 1.212,2.062 1.257,2.022 1.333,1.982 1.442,1.94 1.573,1.89 1.734,1.846 1.925,1.807 V 1.809 L 2.874,1.621 C 3.137,1.57 3.367,1.507 3.563,1.432 3.773,1.351 3.95,1.255 4.091,1.145 4.25,1.022 4.37,0.867 4.451,0.682 4.527,0.505 4.566,0.307 4.566,0.087 4.566,-0.016 4.556,-0.119 4.536,-0.221 4.517,-0.319 4.487,-0.418 4.447,-0.517 4.404,-0.621 4.35,-0.718 4.285,-0.806 4.22,-0.894 4.143,-0.978 4.053,-1.056 3.962,-1.136 3.857,-1.207 3.738,-1.269 3.627,-1.326 3.5,-1.377 3.358,-1.42 3.216,-1.463 3.064,-1.495 2.903,-1.515 c -0.16,-0.02 -0.333,-0.03 -0.517,-0.03 -0.195,0 -0.378,0.01 -0.552,0.031 -0.172,0.02 -0.336,0.052 -0.488,0.095 -0.154,0.043 -0.296,0.097 -0.425,0.162 -0.134,0.067 -0.253,0.145 -0.356,0.234 -0.105,0.09 -0.196,0.189 -0.271,0.294 -0.077,0.106 -0.14,0.223 -0.189,0.348 V -0.38 C 0.058,-0.259 0.023,-0.132 0,0 M -3.941,0.956 -4.59,2.378 -5.24,0.956 Z m -2.6,-2.398 h -0.336 -0.508 l 0.212,0.462 2.119,4.613 0.088,0.191 h 0.208 0.113 0.11 0.113 0.208 l 0.088,-0.191 2.118,-4.613 0.213,-0.462 H -2.303 -2.639 -2.848 L -2.935,-1.25 -3.526,0.044 H -5.654 L -6.245,-1.25 -6.332,-1.442 Z m -4.686,4.355 h -1.534 -0.326 v 0.326 0.259 0.326 h 0.326 4.018 0.327 V 3.498 3.239 2.913 h -0.327 -1.534 v -4.028 -0.327 h -0.326 -0.297 -0.327 v 0.327 z m -8.141,-4.355 h -0.297 -0.327 v 0.327 4.613 0.326 h 0.327 0.375 0.153 l 0.098,-0.12 2.878,-3.51 v 3.304 0.326 h 0.327 0.297 0.326 V 3.498 -1.115 -1.442 h -0.326 -0.375 -0.153 l -0.098,0.121 -2.879,3.509 v -3.303 -0.327 z m -3.558,0 h -0.297 -0.327 v 0.327 4.613 0.326 h 0.327 0.297 0.326 V 3.498 -1.115 -1.442 Z m -5.558,4.355 h -1.534 -0.326 v 0.326 0.259 0.326 h 0.326 4.018 0.326 V 3.498 3.239 2.913 H -26 -27.534 v -4.028 -0.327 h -0.327 -0.297 -0.326 v 0.327 z"
         style="fill:#ffffff;fill-opacity:1;fill-rule:nonzero;stroke:none"
         id="path112"
         inkscape:connector-curvature="0" />
    </g>
  </g>
</svg>
