<?xml version="1.0" encoding="UTF-8" standalone="no"?>
<!-- Created with Inkscape (http://www.inkscape.org/) -->

<svg
   xmlns:dc="http://purl.org/dc/elements/1.1/"
   xmlns:cc="http://creativecommons.org/ns#"
   xmlns:rdf="http://www.w3.org/1999/02/22-rdf-syntax-ns#"
   xmlns:svg="http://www.w3.org/2000/svg"
   xmlns="http://www.w3.org/2000/svg"
   xmlns:sodipodi="http://sodipodi.sourceforge.net/DTD/sodipodi-0.dtd"
   xmlns:inkscape="http://www.inkscape.org/namespaces/inkscape"
   version="1.1"
   id="svg2"
   xml:space="preserve"
   width="4096"
   height="4096"
   viewBox="0 0 4096.0001 4096"
   sodipodi:docname="suvinil-logo.svg"
   inkscape:export-filename="G:\Users\suitedoalex\sites\suvinil-logo-0.png"
   inkscape:export-xdpi="96"
   inkscape:export-ydpi="96"
   inkscape:version="0.92.2 (5c3e80d, 2017-08-06)"><metadata
     id="metadata8"><rdf:RDF><cc:Work
         rdf:about=""><dc:format>image/svg+xml</dc:format><dc:type
           rdf:resource="http://purl.org/dc/dcmitype/StillImage" /><dc:title></dc:title></cc:Work></rdf:RDF></metadata><defs
     id="defs6"><clipPath
       clipPathUnits="userSpaceOnUse"
       id="clipPath18"><path
         d="M 0,566.929 H 1133.86 V 0 H 0 Z"
         id="path16"
         inkscape:connector-curvature="0" /></clipPath><clipPath
       clipPathUnits="userSpaceOnUse"
       id="clipPath26"><path
         d="M -13.6187,582.658 H 451.179 V 53.4318 H -13.6187 Z"
         id="path24"
         inkscape:connector-curvature="0" /></clipPath><clipPath
       clipPathUnits="userSpaceOnUse"
       id="clipPath40"><path
         d="M 73.7198,497.933 H 307.285 V -10.7244 H 73.7198 Z"
         id="path38"
         inkscape:connector-curvature="0" /></clipPath><clipPath
       clipPathUnits="userSpaceOnUse"
       id="clipPath56"><path
         d="M 354.42,489.345 H 567.794 V -16.2049 H 354.42 Z"
         id="path54"
         inkscape:connector-curvature="0" /></clipPath><clipPath
       clipPathUnits="userSpaceOnUse"
       id="clipPath70"><path
         d="M -12.5992,80.7528 H 105.845 V -10.2361 H -12.5992 Z"
         id="path68"
         inkscape:connector-curvature="0" /></clipPath><clipPath
       clipPathUnits="userSpaceOnUse"
       id="clipPath88"><path
         d="M 0,566.929 H 1133.86 V 0 H 0 Z"
         id="path86"
         inkscape:connector-curvature="0" /></clipPath><clipPath
       clipPathUnits="userSpaceOnUse"
       id="clipPath96"><path
         d="M 656.016,585.01 H 1143.28 V 108.85 H 656.016 Z"
         id="path94"
         inkscape:connector-curvature="0" /></clipPath><clipPath
       clipPathUnits="userSpaceOnUse"
       id="clipPath110"><path
         d="M 858.604,496.541 H 1047.93 V -14.7244 H 858.604 Z"
         id="path108"
         inkscape:connector-curvature="0" /></clipPath><clipPath
       clipPathUnits="userSpaceOnUse"
       id="clipPath126"><path
         d="m 1015.22,133.343 h 128.09 V -14.7244 h -128.09 z"
         id="path124"
         inkscape:connector-curvature="0" /></clipPath><clipPath
       clipPathUnits="userSpaceOnUse"
       id="clipPath142"><path
         d="M 604.694,518.982 H 732.992 V 426.036 H 604.694 Z"
         id="path140"
         inkscape:connector-curvature="0" /></clipPath><clipPath
       clipPathUnits="userSpaceOnUse"
       id="clipPath178"><path
         d="M 0,566.929 H 1133.86 V 0 H 0 Z"
         id="path176"
         inkscape:connector-curvature="0" /></clipPath><clipPath
       clipPathUnits="userSpaceOnUse"
       id="clipPath266"><path
         d="M 0,566.929 H 1133.86 V 0 H 0 Z"
         id="path264"
         inkscape:connector-curvature="0" /></clipPath><clipPath
       clipPathUnits="userSpaceOnUse"
       id="clipPath294"><path
         d="M 0,566.929 H 1133.86 V 0 H 0 Z"
         id="path292"
         inkscape:connector-curvature="0" /></clipPath></defs><sodipodi:namedview
     pagecolor="#ffffff"
     bordercolor="#666666"
     borderopacity="1"
     objecttolerance="10"
     gridtolerance="10"
     guidetolerance="10"
     inkscape:pageopacity="0"
     inkscape:pageshadow="2"
     inkscape:window-width="1600"
     inkscape:window-height="837"
     id="namedview4"
     showgrid="false"
     inkscape:zoom="0.11313708"
     inkscape:cx="2088.1929"
     inkscape:cy="2038.9773"
     inkscape:window-x="-8"
     inkscape:window-y="-8"
     inkscape:window-maximized="1"
     inkscape:current-layer="g10" /><g
     id="g10"
     inkscape:groupmode="layer"
     inkscape:label="suvinil-logo"
     transform="matrix(1.3333333,0,0,-1.3333333,0,4096)"><g
       id="g172"
       inkscape:export-filename="G:\Users\suitedoalex\sites\suvinil-logo-5.png"
       inkscape:export-xdpi="5.8018975"
       inkscape:export-ydpi="5.8018975"><g
         id="g174"
         clip-path="url(#clipPath178)" /></g><g
       id="g212"
       transform="matrix(16.551611,0,0,16.551611,860.46283,1672.0459)"
       inkscape:export-filename="G:\Users\suitedoalex\sites\suvinil-logo-5.png"
       inkscape:export-xdpi="5.8018975"
       inkscape:export-ydpi="5.8018975"><path
         d="M 0,0 H -8.716 L -2.25,-13.867 -24.012,-24.014 H 0 Z"
         style="fill:#d11946;fill-opacity:1;fill-rule:nonzero;stroke:none"
         id="path214"
         inkscape:connector-curvature="0" /></g><g
       id="g216"
       transform="matrix(16.551611,0,0,16.551611,716.19889,1672.0459)"
       inkscape:export-filename="G:\Users\suitedoalex\sites\suvinil-logo-5.png"
       inkscape:export-xdpi="5.8018975"
       inkscape:export-ydpi="5.8018975"><path
         d="M 0,0 -3.683,7.897 -25.446,-2.252 -15.298,-24.014 V 0 Z"
         style="fill:#fcd205;fill-opacity:1;fill-rule:nonzero;stroke:none"
         id="path218"
         inkscape:connector-curvature="0" /></g><g
       id="g220"
       transform="matrix(16.551611,0,0,16.551611,716.19889,1672.0459)"
       inkscape:export-filename="G:\Users\suitedoalex\sites\suvinil-logo-5.png"
       inkscape:export-xdpi="5.8018975"
       inkscape:export-ydpi="5.8018975"><path
         d="m 0,0 h -15.298 v -24.014 h 0.002 l 21.762,10.147 z"
         style="fill:#f36717;fill-opacity:1;fill-rule:nonzero;stroke:none"
         id="path222"
         inkscape:connector-curvature="0" /></g><g
       id="g224"
       transform="matrix(16.551611,0,0,16.551611,1078.7122,1269.3121)"
       inkscape:export-filename="G:\Users\suitedoalex\sites\suvinil-logo-5.png"
       inkscape:export-xdpi="5.8018975"
       inkscape:export-ydpi="5.8018975"><path
         d="m 0,0 c -1.056,0 -2.045,0.137 -2.972,0.413 -0.925,0.275 -1.667,0.616 -2.225,1.025 v 5.263 c 0.438,-0.389 1.035,-0.74 1.792,-1.056 0.757,-0.316 1.623,-0.474 2.599,-0.474 1.214,0 2.115,0.26 2.702,0.78 0.588,0.52 0.882,1.086 0.882,1.698 0,0.51 -0.145,0.979 -0.433,1.407 C 2.056,9.485 1.523,9.892 0.747,10.28 l -2.001,1.071 c -1.195,0.633 -2.156,1.392 -2.882,2.28 -0.728,0.887 -1.091,2.004 -1.091,3.35 0,1.958 0.787,3.585 2.36,4.88 1.573,1.295 3.693,1.943 6.362,1.943 1.015,0 1.891,-0.081 2.628,-0.244 0.736,-0.164 1.304,-0.368 1.703,-0.612 v -5.232 c -0.379,0.264 -0.881,0.505 -1.509,0.718 -0.627,0.215 -1.29,0.321 -1.986,0.321 -0.976,0 -1.752,-0.182 -2.33,-0.55 -0.577,-0.367 -0.866,-0.867 -0.866,-1.5 0,-0.428 0.135,-0.795 0.404,-1.101 0.268,-0.306 0.711,-0.611 1.329,-0.918 L 4.779,13.677 C 6.172,12.943 7.213,12.065 7.9,11.045 8.587,10.026 8.931,8.842 8.931,7.496 8.931,5.436 8.185,3.672 6.691,2.203 5.198,0.734 2.967,0 0,0"
         style="fill:#231f20;fill-opacity:1;fill-rule:nonzero;stroke:none"
         id="path226"
         inkscape:connector-curvature="0" /></g><g
       id="g228"
       transform="matrix(16.551611,0,0,16.551611,1419.543,1269.3121)"
       inkscape:export-filename="G:\Users\suitedoalex\sites\suvinil-logo-5.png"
       inkscape:export-xdpi="5.8018975"
       inkscape:export-ydpi="5.8018975"><path
         d="m 0,0 c -2.688,0 -4.793,0.755 -6.317,2.264 -1.524,1.509 -2.286,3.569 -2.286,6.181 v 8.842 h 5.945 V 7.986 c 0,-0.939 0.219,-1.694 0.657,-2.264 C -1.564,5.15 -0.896,4.865 0,4.865 c 0.935,0 1.627,0.285 2.076,0.857 0.448,0.57 0.672,1.325 0.672,2.264 v 9.301 H 8.662 V 8.445 C 8.662,5.833 7.9,3.773 6.376,2.264 4.853,0.755 2.728,0 0,0"
         style="fill:#231f20;fill-opacity:1;fill-rule:nonzero;stroke:none"
         id="path230"
         inkscape:connector-curvature="0" /></g><g
       id="g232"
       transform="matrix(16.551611,0,0,16.551611,1888.6985,1555.4399)"
       inkscape:export-filename="G:\Users\suitedoalex\sites\suvinil-logo-5.png"
       inkscape:export-xdpi="5.8018975"
       inkscape:export-ydpi="5.8018975"><path
         d="M 0,0 -8.482,-17.166 H -9.11 L -17.592,0 h 5.823 L -8.782,-7.466 -5.824,0 Z"
         style="fill:#231f20;fill-opacity:1;fill-rule:nonzero;stroke:none"
         id="path234"
         inkscape:connector-curvature="0" /></g><path
       d="m 1930.2098,1555.4396 h 95.9001 v -278.0338 h -95.9001 z"
       style="fill:#231f20;fill-opacity:1;fill-rule:nonzero;stroke:none;stroke-width:16.55161095"
       id="path236"
       inkscape:connector-curvature="0"
       inkscape:export-filename="G:\Users\suitedoalex\sites\suvinil-logo-5.png"
       inkscape:export-xdpi="5.8018975"
       inkscape:export-ydpi="5.8018975" /><g
       id="g238"
       transform="matrix(16.551611,0,0,16.551611,2203.5928,1426.8007)"
       inkscape:export-filename="G:\Users\suitedoalex\sites\suvinil-logo-5.png"
       inkscape:export-xdpi="5.8018975"
       inkscape:export-ydpi="5.8018975"><path
         d="M 0,0 V -9.026 H -6.034 V 7.772 h 5.706 V 4.957 c 0.496,0.897 1.264,1.672 2.299,2.325 1.035,0.652 2.21,0.979 3.525,0.979 1.831,0 3.304,-0.581 4.42,-1.744 1.115,-1.163 1.672,-2.753 1.672,-4.773 V -9.026 H 5.556 v 9.21 c 0,0.999 -0.23,1.785 -0.688,2.355 C 4.41,3.11 3.763,3.396 2.927,3.396 2.071,3.396 1.369,3.091 0.821,2.479 0.273,1.866 0,1.041 0,0"
         style="fill:#231f20;fill-opacity:1;fill-rule:nonzero;stroke:none"
         id="path240"
         inkscape:connector-curvature="0" /></g><path
       d="m 2471.5303,1555.4396 h 95.9001 v -278.0338 h -95.9001 z"
       style="fill:#231f20;fill-opacity:1;fill-rule:nonzero;stroke:none;stroke-width:16.55161095"
       id="path242"
       inkscape:connector-curvature="0"
       inkscape:export-filename="G:\Users\suitedoalex\sites\suvinil-logo-5.png"
       inkscape:export-xdpi="5.8018975"
       inkscape:export-ydpi="5.8018975" /><g
       id="g244"
       transform="matrix(16.551611,0,0,16.551611,2644.8916,1357.9461)"
       inkscape:export-filename="G:\Users\suitedoalex\sites\suvinil-logo-5.png"
       inkscape:export-xdpi="5.8018975"
       inkscape:export-ydpi="5.8018975"><path
         d="M 0,0 V 19.015 H 5.799 V 1.194 c 0,-0.449 0.119,-0.776 0.358,-0.98 0.239,-0.204 0.509,-0.306 0.807,-0.306 0.259,0 0.469,0.026 0.628,0.077 0.159,0.05 0.288,0.107 0.388,0.168 V -4.654 C 7.722,-4.838 7.313,-5.001 6.755,-5.144 6.197,-5.287 5.629,-5.359 5.051,-5.359 3.158,-5.359 1.843,-4.818 1.106,-3.735 0.369,-2.654 0,-1.408 0,0"
         style="fill:#231f20;fill-opacity:1;fill-rule:nonzero;stroke:none"
         id="path246"
         inkscape:connector-curvature="0" /></g><g
       id="g248"
       transform="matrix(16.551611,0,0,16.551611,1977.9116,1593.8229)"
       inkscape:export-filename="G:\Users\suitedoalex\sites\suvinil-logo-5.png"
       inkscape:export-xdpi="5.8018975"
       inkscape:export-ydpi="5.8018975"><path
         d="M 0,0 C 1.981,0 3.183,1.007 3.183,2.858 3.183,4.71 1.981,5.717 0,5.717 -1.949,5.717 -3.183,4.71 -3.183,2.858 -3.183,1.007 -1.949,0 0,0"
         style="fill:#231f20;fill-opacity:1;fill-rule:nonzero;stroke:none"
         id="path250"
         inkscape:connector-curvature="0" /></g><g
       id="g252"
       transform="matrix(16.551611,0,0,16.551611,2519.4139,1593.6573)"
       inkscape:export-filename="G:\Users\suitedoalex\sites\suvinil-logo-5.png"
       inkscape:export-xdpi="5.8018975"
       inkscape:export-ydpi="5.8018975"><path
         d="M 0,0 C 1.981,0 3.183,1.007 3.183,2.858 3.183,4.71 1.981,5.717 0,5.717 -1.949,5.717 -3.183,4.71 -3.183,2.858 -3.183,1.007 -1.949,0 0,0"
         style="fill:#231f20;fill-opacity:1;fill-rule:nonzero;stroke:none"
         id="path254"
         inkscape:connector-curvature="0" /></g></g></svg>